<?xml version="1.0" standalone="yes"?>
<svg xmlns="http://www.w3.org/2000/svg" version="1.1" width="256" height="256">
  <rect x="0" y="0" width="256" height="256" style="fill:#ffffff;shape-rendering:crispEdges;"/>
  <path x="0" y="0" style="fill:#000000;shape-rendering:crispEdges;" d="M15.52,15.52 V23.27 H23.27 V15.52 H15.52 Z M23.27,15.52 V23.27 H31.03 V15.52 H23.27 Z M31.03,15.52 V23.27 H38.79 V15.52 H31.03 Z M38.79,15.52 V23.27 H46.55 V15.52 H38.79 Z M46.55,15.52 V23.27 H54.30 V15.52 H46.55 Z M54.30,15.52 V23.27 H62.06 V15.52 H54.30 Z M62.06,15.52 V23.27 H69.82 V15.52 H62.06 Z M77.58,15.52 V23.27 H85.33 V15.52 H77.58 Z M93.09,15.52 V23.27 H100.85 V15.52 H93.09 Z M131.88,15.52 V23.27 H139.64 V15.52 H131.88 Z M139.64,15.52 V23.27 H147.39 V15.52 H139.64 Z M155.15,15.52 V23.27 H162.91 V15.52 H155.15 Z M170.67,15.52 V23.27 H178.42 V15.52 H170.67 Z M186.18,15.52 V23.27 H193.94 V15.52 H186.18 Z M193.94,15.52 V23.27 H201.70 V15.52 H193.94 Z M201.70,15.52 V23.27 H209.45 V15.52 H201.70 Z M209.45,15.52 V23.27 H217.21 V15.52 H209.45 Z M217.21,15.52 V23.27 H224.97 V15.52 H217.21 Z M224.97,15.52 V23.27 H232.73 V15.52 H224.97 Z M232.73,15.52 V23.27 H240.48 V15.52 H232.73 Z M15.52,23.27 V31.03 H23.27 V23.27 H15.52 Z M62.06,23.27 V31.03 H69.82 V23.27 H62.06 Z M108.61,23.27 V31.03 H116.36 V23.27 H108.61 Z M116.36,23.27 V31.03 H124.12 V23.27 H116.36 Z M162.91,23.27 V31.03 H170.67 V23.27 H162.91 Z M186.18,23.27 V31.03 H193.94 V23.27 H186.18 Z M232.73,23.27 V31.03 H240.48 V23.27 H232.73 Z M15.52,31.03 V38.79 H23.27 V31.03 H15.52 Z M31.03,31.03 V38.79 H38.79 V31.03 H31.03 Z M38.79,31.03 V38.79 H46.55 V31.03 H38.79 Z M46.55,31.03 V38.79 H54.30 V31.03 H46.55 Z M62.06,31.03 V38.79 H69.82 V31.03 H62.06 Z M77.58,31.03 V38.79 H85.33 V31.03 H77.58 Z M100.85,31.03 V38.79 H108.61 V31.03 H100.85 Z M108.61,31.03 V38.79 H116.36 V31.03 H108.61 Z M139.64,31.03 V38.79 H147.39 V31.03 H139.64 Z M147.39,31.03 V38.79 H155.15 V31.03 H147.39 Z M186.18,31.03 V38.79 H193.94 V31.03 H186.18 Z M201.70,31.03 V38.79 H209.45 V31.03 H201.70 Z M209.45,31.03 V38.79 H217.21 V31.03 H209.45 Z M217.21,31.03 V38.79 H224.97 V31.03 H217.21 Z M232.73,31.03 V38.79 H240.48 V31.03 H232.73 Z M15.52,38.79 V46.55 H23.27 V38.79 H15.52 Z M31.03,38.79 V46.55 H38.79 V38.79 H31.03 Z M38.79,38.79 V46.55 H46.55 V38.79 H38.79 Z M46.55,38.79 V46.55 H54.30 V38.79 H46.55 Z M62.06,38.79 V46.55 H69.82 V38.79 H62.06 Z M116.36,38.79 V46.55 H124.12 V38.79 H116.36 Z M124.12,38.79 V46.55 H131.88 V38.79 H124.12 Z M170.67,38.79 V46.55 H178.42 V38.79 H170.67 Z M186.18,38.79 V46.55 H193.94 V38.79 H186.18 Z M201.70,38.79 V46.55 H209.45 V38.79 H201.70 Z M209.45,38.79 V46.55 H217.21 V38.79 H209.45 Z M217.21,38.79 V46.55 H224.97 V38.79 H217.21 Z M232.73,38.79 V46.55 H240.48 V38.79 H232.73 Z M15.52,46.55 V54.30 H23.27 V46.55 H15.52 Z M31.03,46.55 V54.30 H38.79 V46.55 H31.03 Z M38.79,46.55 V54.30 H46.55 V46.55 H38.79 Z M46.55,46.55 V54.30 H54.30 V46.55 H46.55 Z M62.06,46.55 V54.30 H69.82 V46.55 H62.06 Z M77.58,46.55 V54.30 H85.33 V46.55 H77.58 Z M85.33,46.55 V54.30 H93.09 V46.55 H85.33 Z M93.09,46.55 V54.30 H100.85 V46.55 H93.09 Z M108.61,46.55 V54.30 H116.36 V46.55 H108.61 Z M116.36,46.55 V54.30 H124.12 V46.55 H116.36 Z M162.91,46.55 V54.30 H170.67 V46.55 H162.91 Z M170.67,46.55 V54.30 H178.42 V46.55 H170.67 Z M186.18,46.55 V54.30 H193.94 V46.55 H186.18 Z M201.70,46.55 V54.30 H209.45 V46.55 H201.70 Z M209.45,46.55 V54.30 H217.21 V46.55 H209.45 Z M217.21,46.55 V54.30 H224.97 V46.55 H217.21 Z M232.73,46.55 V54.30 H240.48 V46.55 H232.73 Z M15.52,54.30 V62.06 H23.27 V54.30 H15.52 Z M62.06,54.30 V62.06 H69.82 V54.30 H62.06 Z M100.85,54.30 V62.06 H108.61 V54.30 H100.85 Z M108.61,54.30 V62.06 H116.36 V54.30 H108.61 Z M116.36,54.30 V62.06 H124.12 V54.30 H116.36 Z M131.88,54.30 V62.06 H139.64 V54.30 H131.88 Z M155.15,54.30 V62.06 H162.91 V54.30 H155.15 Z M186.18,54.30 V62.06 H193.94 V54.30 H186.18 Z M232.73,54.30 V62.06 H240.48 V54.30 H232.73 Z M15.52,62.06 V69.82 H23.27 V62.06 H15.52 Z M23.27,62.06 V69.82 H31.03 V62.06 H23.27 Z M31.03,62.06 V69.82 H38.79 V62.06 H31.03 Z M38.79,62.06 V69.82 H46.55 V62.06 H38.79 Z M46.55,62.06 V69.82 H54.30 V62.06 H46.55 Z M54.30,62.06 V69.82 H62.06 V62.06 H54.30 Z M62.06,62.06 V69.82 H69.82 V62.06 H62.06 Z M77.58,62.06 V69.82 H85.33 V62.06 H77.58 Z M93.09,62.06 V69.82 H100.85 V62.06 H93.09 Z M108.61,62.06 V69.82 H116.36 V62.06 H108.61 Z M124.12,62.06 V69.82 H131.88 V62.06 H124.12 Z M139.64,62.06 V69.82 H147.39 V62.06 H139.64 Z M155.15,62.06 V69.82 H162.91 V62.06 H155.15 Z M170.67,62.06 V69.82 H178.42 V62.06 H170.67 Z M186.18,62.06 V69.82 H193.94 V62.06 H186.18 Z M193.94,62.06 V69.82 H201.70 V62.06 H193.94 Z M201.70,62.06 V69.82 H209.45 V62.06 H201.70 Z M209.45,62.06 V69.82 H217.21 V62.06 H209.45 Z M217.21,62.06 V69.82 H224.97 V62.06 H217.21 Z M224.97,62.06 V69.82 H232.73 V62.06 H224.97 Z M232.73,62.06 V69.82 H240.48 V62.06 H232.73 Z M85.33,69.82 V77.58 H93.09 V69.82 H85.33 Z M93.09,69.82 V77.58 H100.85 V69.82 H93.09 Z M100.85,69.82 V77.58 H108.61 V69.82 H100.85 Z M147.39,69.82 V77.58 H155.15 V69.82 H147.39 Z M23.27,77.58 V85.33 H31.03 V77.58 H23.27 Z M46.55,77.58 V85.33 H54.30 V77.58 H46.55 Z M62.06,77.58 V85.33 H69.82 V77.58 H62.06 Z M85.33,77.58 V85.33 H93.09 V77.58 H85.33 Z M116.36,77.58 V85.33 H124.12 V77.58 H116.36 Z M124.12,77.58 V85.33 H131.88 V77.58 H124.12 Z M147.39,77.58 V85.33 H155.15 V77.58 H147.39 Z M155.15,77.58 V85.33 H162.91 V77.58 H155.15 Z M162.91,77.58 V85.33 H170.67 V77.58 H162.91 Z M178.42,77.58 V85.33 H186.18 V77.58 H178.42 Z M201.70,77.58 V85.33 H209.45 V77.58 H201.70 Z M217.21,77.58 V85.33 H224.97 V77.58 H217.21 Z M232.73,77.58 V85.33 H240.48 V77.58 H232.73 Z M23.27,85.33 V93.09 H31.03 V85.33 H23.27 Z M46.55,85.33 V93.09 H54.30 V85.33 H46.55 Z M54.30,85.33 V93.09 H62.06 V85.33 H54.30 Z M93.09,85.33 V93.09 H100.85 V85.33 H93.09 Z M116.36,85.33 V93.09 H124.12 V85.33 H116.36 Z M124.12,85.33 V93.09 H131.88 V85.33 H124.12 Z M147.39,85.33 V93.09 H155.15 V85.33 H147.39 Z M155.15,85.33 V93.09 H162.91 V85.33 H155.15 Z M170.67,85.33 V93.09 H178.42 V85.33 H170.67 Z M186.18,85.33 V93.09 H193.94 V85.33 H186.18 Z M232.73,85.33 V93.09 H240.48 V85.33 H232.73 Z M15.52,93.09 V100.85 H23.27 V93.09 H15.52 Z M23.27,93.09 V100.85 H31.03 V93.09 H23.27 Z M31.03,93.09 V100.85 H38.79 V93.09 H31.03 Z M46.55,93.09 V100.85 H54.30 V93.09 H46.55 Z M62.06,93.09 V100.85 H69.82 V93.09 H62.06 Z M69.82,93.09 V100.85 H77.58 V93.09 H69.82 Z M85.33,93.09 V100.85 H93.09 V93.09 H85.33 Z M131.88,93.09 V100.85 H139.64 V93.09 H131.88 Z M178.42,93.09 V100.85 H186.18 V93.09 H178.42 Z M201.70,93.09 V100.85 H209.45 V93.09 H201.70 Z M209.45,93.09 V100.85 H217.21 V93.09 H209.45 Z M217.21,93.09 V100.85 H224.97 V93.09 H217.21 Z M232.73,93.09 V100.85 H240.48 V93.09 H232.73 Z M46.55,100.85 V108.61 H54.30 V100.85 H46.55 Z M54.30,100.85 V108.61 H62.06 V100.85 H54.30 Z M77.58,100.85 V108.61 H85.33 V100.85 H77.58 Z M93.09,100.85 V108.61 H100.85 V100.85 H93.09 Z M108.61,100.85 V108.61 H116.36 V100.85 H108.61 Z M131.88,100.85 V108.61 H139.64 V100.85 H131.88 Z M139.64,100.85 V108.61 H147.39 V100.85 H139.64 Z M170.67,100.85 V108.61 H178.42 V100.85 H170.67 Z M178.42,100.85 V108.61 H186.18 V100.85 H178.42 Z M193.94,100.85 V108.61 H201.70 V100.85 H193.94 Z M201.70,100.85 V108.61 H209.45 V100.85 H201.70 Z M224.97,100.85 V108.61 H232.73 V100.85 H224.97 Z M232.73,100.85 V108.61 H240.48 V100.85 H232.73 Z M38.79,108.61 V116.36 H46.55 V108.61 H38.79 Z M54.30,108.61 V116.36 H62.06 V108.61 H54.30 Z M62.06,108.61 V116.36 H69.82 V108.61 H62.06 Z M69.82,108.61 V116.36 H77.58 V108.61 H69.82 Z M77.58,108.61 V116.36 H85.33 V108.61 H77.58 Z M85.33,108.61 V116.36 H93.09 V108.61 H85.33 Z M100.85,108.61 V116.36 H108.61 V108.61 H100.85 Z M108.61,108.61 V116.36 H116.36 V108.61 H108.61 Z M124.12,108.61 V116.36 H131.88 V108.61 H124.12 Z M131.88,108.61 V116.36 H139.64 V108.61 H131.88 Z M155.15,108.61 V116.36 H162.91 V108.61 H155.15 Z M162.91,108.61 V116.36 H170.67 V108.61 H162.91 Z M178.42,108.61 V116.36 H186.18 V108.61 H178.42 Z M186.18,108.61 V116.36 H193.94 V108.61 H186.18 Z M232.73,108.61 V116.36 H240.48 V108.61 H232.73 Z M23.27,116.36 V124.12 H31.03 V116.36 H23.27 Z M38.79,116.36 V124.12 H46.55 V116.36 H38.79 Z M46.55,116.36 V124.12 H54.30 V116.36 H46.55 Z M85.33,116.36 V124.12 H93.09 V116.36 H85.33 Z M100.85,116.36 V124.12 H108.61 V116.36 H100.85 Z M124.12,116.36 V124.12 H131.88 V116.36 H124.12 Z M147.39,116.36 V124.12 H155.15 V116.36 H147.39 Z M162.91,116.36 V124.12 H170.67 V116.36 H162.91 Z M186.18,116.36 V124.12 H193.94 V116.36 H186.18 Z M209.45,116.36 V124.12 H217.21 V116.36 H209.45 Z M217.21,116.36 V124.12 H224.97 V116.36 H217.21 Z M224.97,116.36 V124.12 H232.73 V116.36 H224.97 Z M232.73,116.36 V124.12 H240.48 V116.36 H232.73 Z M15.52,124.12 V131.88 H23.27 V124.12 H15.52 Z M54.30,124.12 V131.88 H62.06 V124.12 H54.30 Z M62.06,124.12 V131.88 H69.82 V124.12 H62.06 Z M93.09,124.12 V131.88 H100.85 V124.12 H93.09 Z M100.85,124.12 V131.88 H108.61 V124.12 H100.85 Z M108.61,124.12 V131.88 H116.36 V124.12 H108.61 Z M116.36,124.12 V131.88 H124.12 V124.12 H116.36 Z M155.15,124.12 V131.88 H162.91 V124.12 H155.15 Z M162.91,124.12 V131.88 H170.67 V124.12 H162.91 Z M170.67,124.12 V131.88 H178.42 V124.12 H170.67 Z M178.42,124.12 V131.88 H186.18 V124.12 H178.42 Z M217.21,124.12 V131.88 H224.97 V124.12 H217.21 Z M224.97,124.12 V131.88 H232.73 V124.12 H224.97 Z M31.03,131.88 V139.64 H38.79 V131.88 H31.03 Z M54.30,131.88 V139.64 H62.06 V131.88 H54.30 Z M69.82,131.88 V139.64 H77.58 V131.88 H69.82 Z M85.33,131.88 V139.64 H93.09 V131.88 H85.33 Z M93.09,131.88 V139.64 H100.85 V131.88 H93.09 Z M108.61,131.88 V139.64 H116.36 V131.88 H108.61 Z M116.36,131.88 V139.64 H124.12 V131.88 H116.36 Z M131.88,131.88 V139.64 H139.64 V131.88 H131.88 Z M147.39,131.88 V139.64 H155.15 V131.88 H147.39 Z M155.15,131.88 V139.64 H162.91 V131.88 H155.15 Z M170.67,131.88 V139.64 H178.42 V131.88 H170.67 Z M178.42,131.88 V139.64 H186.18 V131.88 H178.42 Z M193.94,131.88 V139.64 H201.70 V131.88 H193.94 Z M224.97,131.88 V139.64 H232.73 V131.88 H224.97 Z M232.73,131.88 V139.64 H240.48 V131.88 H232.73 Z M38.79,139.64 V147.39 H46.55 V139.64 H38.79 Z M46.55,139.64 V147.39 H54.30 V139.64 H46.55 Z M54.30,139.64 V147.39 H62.06 V139.64 H54.30 Z M62.06,139.64 V147.39 H69.82 V139.64 H62.06 Z M77.58,139.64 V147.39 H85.33 V139.64 H77.58 Z M85.33,139.64 V147.39 H93.09 V139.64 H85.33 Z M93.09,139.64 V147.39 H100.85 V139.64 H93.09 Z M100.85,139.64 V147.39 H108.61 V139.64 H100.85 Z M139.64,139.64 V147.39 H147.39 V139.64 H139.64 Z M147.39,139.64 V147.39 H155.15 V139.64 H147.39 Z M155.15,139.64 V147.39 H162.91 V139.64 H155.15 Z M162.91,139.64 V147.39 H170.67 V139.64 H162.91 Z M170.67,139.64 V147.39 H178.42 V139.64 H170.67 Z M224.97,139.64 V147.39 H232.73 V139.64 H224.97 Z M232.73,139.64 V147.39 H240.48 V139.64 H232.73 Z M23.27,147.39 V155.15 H31.03 V147.39 H23.27 Z M46.55,147.39 V155.15 H54.30 V147.39 H46.55 Z M54.30,147.39 V155.15 H62.06 V147.39 H54.30 Z M69.82,147.39 V155.15 H77.58 V147.39 H69.82 Z M77.58,147.39 V155.15 H85.33 V147.39 H77.58 Z M93.09,147.39 V155.15 H100.85 V147.39 H93.09 Z M100.85,147.39 V155.15 H108.61 V147.39 H100.85 Z M108.61,147.39 V155.15 H116.36 V147.39 H108.61 Z M116.36,147.39 V155.15 H124.12 V147.39 H116.36 Z M131.88,147.39 V155.15 H139.64 V147.39 H131.88 Z M139.64,147.39 V155.15 H147.39 V147.39 H139.64 Z M155.15,147.39 V155.15 H162.91 V147.39 H155.15 Z M162.91,147.39 V155.15 H170.67 V147.39 H162.91 Z M170.67,147.39 V155.15 H178.42 V147.39 H170.67 Z M178.42,147.39 V155.15 H186.18 V147.39 H178.42 Z M193.94,147.39 V155.15 H201.70 V147.39 H193.94 Z M201.70,147.39 V155.15 H209.45 V147.39 H201.70 Z M209.45,147.39 V155.15 H217.21 V147.39 H209.45 Z M217.21,147.39 V155.15 H224.97 V147.39 H217.21 Z M224.97,147.39 V155.15 H232.73 V147.39 H224.97 Z M232.73,147.39 V155.15 H240.48 V147.39 H232.73 Z M15.52,155.15 V162.91 H23.27 V155.15 H15.52 Z M38.79,155.15 V162.91 H46.55 V155.15 H38.79 Z M46.55,155.15 V162.91 H54.30 V155.15 H46.55 Z M62.06,155.15 V162.91 H69.82 V155.15 H62.06 Z M69.82,155.15 V162.91 H77.58 V155.15 H69.82 Z M77.58,155.15 V162.91 H85.33 V155.15 H77.58 Z M100.85,155.15 V162.91 H108.61 V155.15 H100.85 Z M116.36,155.15 V162.91 H124.12 V155.15 H116.36 Z M124.12,155.15 V162.91 H131.88 V155.15 H124.12 Z M131.88,155.15 V162.91 H139.64 V155.15 H131.88 Z M139.64,155.15 V162.91 H147.39 V155.15 H139.64 Z M162.91,155.15 V162.91 H170.67 V155.15 H162.91 Z M186.18,155.15 V162.91 H193.94 V155.15 H186.18 Z M193.94,155.15 V162.91 H201.70 V155.15 H193.94 Z M217.21,155.15 V162.91 H224.97 V155.15 H217.21 Z M224.97,155.15 V162.91 H232.73 V155.15 H224.97 Z M232.73,155.15 V162.91 H240.48 V155.15 H232.73 Z M15.52,162.91 V170.67 H23.27 V162.91 H15.52 Z M23.27,162.91 V170.67 H31.03 V162.91 H23.27 Z M31.03,162.91 V170.67 H38.79 V162.91 H31.03 Z M46.55,162.91 V170.67 H54.30 V162.91 H46.55 Z M54.30,162.91 V170.67 H62.06 V162.91 H54.30 Z M100.85,162.91 V170.67 H108.61 V162.91 H100.85 Z M162.91,162.91 V170.67 H170.67 V162.91 H162.91 Z M178.42,162.91 V170.67 H186.18 V162.91 H178.42 Z M186.18,162.91 V170.67 H193.94 V162.91 H186.18 Z M232.73,162.91 V170.67 H240.48 V162.91 H232.73 Z M46.55,170.67 V178.42 H54.30 V170.67 H46.55 Z M62.06,170.67 V178.42 H69.82 V170.67 H62.06 Z M85.33,170.67 V178.42 H93.09 V170.67 H85.33 Z M100.85,170.67 V178.42 H108.61 V170.67 H100.85 Z M108.61,170.67 V178.42 H116.36 V170.67 H108.61 Z M116.36,170.67 V178.42 H124.12 V170.67 H116.36 Z M124.12,170.67 V178.42 H131.88 V170.67 H124.12 Z M131.88,170.67 V178.42 H139.64 V170.67 H131.88 Z M147.39,170.67 V178.42 H155.15 V170.67 H147.39 Z M170.67,170.67 V178.42 H178.42 V170.67 H170.67 Z M178.42,170.67 V178.42 H186.18 V170.67 H178.42 Z M186.18,170.67 V178.42 H193.94 V170.67 H186.18 Z M193.94,170.67 V178.42 H201.70 V170.67 H193.94 Z M201.70,170.67 V178.42 H209.45 V170.67 H201.70 Z M209.45,170.67 V178.42 H217.21 V170.67 H209.45 Z M217.21,170.67 V178.42 H224.97 V170.67 H217.21 Z M224.97,170.67 V178.42 H232.73 V170.67 H224.97 Z M232.73,170.67 V178.42 H240.48 V170.67 H232.73 Z M85.33,178.42 V186.18 H93.09 V178.42 H85.33 Z M108.61,178.42 V186.18 H116.36 V178.42 H108.61 Z M116.36,178.42 V186.18 H124.12 V178.42 H116.36 Z M139.64,178.42 V186.18 H147.39 V178.42 H139.64 Z M147.39,178.42 V186.18 H155.15 V178.42 H147.39 Z M155.15,178.42 V186.18 H162.91 V178.42 H155.15 Z M162.91,178.42 V186.18 H170.67 V178.42 H162.91 Z M170.67,178.42 V186.18 H178.42 V178.42 H170.67 Z M201.70,178.42 V186.18 H209.45 V178.42 H201.70 Z M15.52,186.18 V193.94 H23.27 V186.18 H15.52 Z M23.27,186.18 V193.94 H31.03 V186.18 H23.27 Z M31.03,186.18 V193.94 H38.79 V186.18 H31.03 Z M38.79,186.18 V193.94 H46.55 V186.18 H38.79 Z M46.55,186.18 V193.94 H54.30 V186.18 H46.55 Z M54.30,186.18 V193.94 H62.06 V186.18 H54.30 Z M62.06,186.18 V193.94 H69.82 V186.18 H62.06 Z M85.33,186.18 V193.94 H93.09 V186.18 H85.33 Z M93.09,186.18 V193.94 H100.85 V186.18 H93.09 Z M100.85,186.18 V193.94 H108.61 V186.18 H100.85 Z M108.61,186.18 V193.94 H116.36 V186.18 H108.61 Z M116.36,186.18 V193.94 H124.12 V186.18 H116.36 Z M124.12,186.18 V193.94 H131.88 V186.18 H124.12 Z M139.64,186.18 V193.94 H147.39 V186.18 H139.64 Z M147.39,186.18 V193.94 H155.15 V186.18 H147.39 Z M170.67,186.18 V193.94 H178.42 V186.18 H170.67 Z M186.18,186.18 V193.94 H193.94 V186.18 H186.18 Z M201.70,186.18 V193.94 H209.45 V186.18 H201.70 Z M224.97,186.18 V193.94 H232.73 V186.18 H224.97 Z M232.73,186.18 V193.94 H240.48 V186.18 H232.73 Z M15.52,193.94 V201.70 H23.27 V193.94 H15.52 Z M62.06,193.94 V201.70 H69.82 V193.94 H62.06 Z M116.36,193.94 V201.70 H124.12 V193.94 H116.36 Z M124.12,193.94 V201.70 H131.88 V193.94 H124.12 Z M131.88,193.94 V201.70 H139.64 V193.94 H131.88 Z M162.91,193.94 V201.70 H170.67 V193.94 H162.91 Z M170.67,193.94 V201.70 H178.42 V193.94 H170.67 Z M201.70,193.94 V201.70 H209.45 V193.94 H201.70 Z M217.21,193.94 V201.70 H224.97 V193.94 H217.21 Z M15.52,201.70 V209.45 H23.27 V201.70 H15.52 Z M31.03,201.70 V209.45 H38.79 V201.70 H31.03 Z M38.79,201.70 V209.45 H46.55 V201.70 H38.79 Z M46.55,201.70 V209.45 H54.30 V201.70 H46.55 Z M62.06,201.70 V209.45 H69.82 V201.70 H62.06 Z M77.58,201.70 V209.45 H85.33 V201.70 H77.58 Z M100.85,201.70 V209.45 H108.61 V201.70 H100.85 Z M124.12,201.70 V209.45 H131.88 V201.70 H124.12 Z M131.88,201.70 V209.45 H139.64 V201.70 H131.88 Z M155.15,201.70 V209.45 H162.91 V201.70 H155.15 Z M170.67,201.70 V209.45 H178.42 V201.70 H170.67 Z M178.42,201.70 V209.45 H186.18 V201.70 H178.42 Z M186.18,201.70 V209.45 H193.94 V201.70 H186.18 Z M193.94,201.70 V209.45 H201.70 V201.70 H193.94 Z M201.70,201.70 V209.45 H209.45 V201.70 H201.70 Z M209.45,201.70 V209.45 H217.21 V201.70 H209.45 Z M217.21,201.70 V209.45 H224.97 V201.70 H217.21 Z M232.73,201.70 V209.45 H240.48 V201.70 H232.73 Z M15.52,209.45 V217.21 H23.27 V209.45 H15.52 Z M31.03,209.45 V217.21 H38.79 V209.45 H31.03 Z M38.79,209.45 V217.21 H46.55 V209.45 H38.79 Z M46.55,209.45 V217.21 H54.30 V209.45 H46.55 Z M62.06,209.45 V217.21 H69.82 V209.45 H62.06 Z M85.33,209.45 V217.21 H93.09 V209.45 H85.33 Z M108.61,209.45 V217.21 H116.36 V209.45 H108.61 Z M116.36,209.45 V217.21 H124.12 V209.45 H116.36 Z M124.12,209.45 V217.21 H131.88 V209.45 H124.12 Z M131.88,209.45 V217.21 H139.64 V209.45 H131.88 Z M139.64,209.45 V217.21 H147.39 V209.45 H139.64 Z M147.39,209.45 V217.21 H155.15 V209.45 H147.39 Z M162.91,209.45 V217.21 H170.67 V209.45 H162.91 Z M186.18,209.45 V217.21 H193.94 V209.45 H186.18 Z M193.94,209.45 V217.21 H201.70 V209.45 H193.94 Z M217.21,209.45 V217.21 H224.97 V209.45 H217.21 Z M15.52,217.21 V224.97 H23.27 V217.21 H15.52 Z M31.03,217.21 V224.97 H38.79 V217.21 H31.03 Z M38.79,217.21 V224.97 H46.55 V217.21 H38.79 Z M46.55,217.21 V224.97 H54.30 V217.21 H46.55 Z M62.06,217.21 V224.97 H69.82 V217.21 H62.06 Z M93.09,217.21 V224.97 H100.85 V217.21 H93.09 Z M147.39,217.21 V224.97 H155.15 V217.21 H147.39 Z M178.42,217.21 V224.97 H186.18 V217.21 H178.42 Z M209.45,217.21 V224.97 H217.21 V217.21 H209.45 Z M15.52,224.97 V232.73 H23.27 V224.97 H15.52 Z M62.06,224.97 V232.73 H69.82 V224.97 H62.06 Z M77.58,224.97 V232.73 H85.33 V224.97 H77.58 Z M93.09,224.97 V232.73 H100.85 V224.97 H93.09 Z M100.85,224.97 V232.73 H108.61 V224.97 H100.85 Z M108.61,224.97 V232.73 H116.36 V224.97 H108.61 Z M124.12,224.97 V232.73 H131.88 V224.97 H124.12 Z M131.88,224.97 V232.73 H139.64 V224.97 H131.88 Z M139.64,224.97 V232.73 H147.39 V224.97 H139.64 Z M155.15,224.97 V232.73 H162.91 V224.97 H155.15 Z M162.91,224.97 V232.73 H170.67 V224.97 H162.91 Z M178.42,224.97 V232.73 H186.18 V224.97 H178.42 Z M186.18,224.97 V232.73 H193.94 V224.97 H186.18 Z M201.70,224.97 V232.73 H209.45 V224.97 H201.70 Z M224.97,224.97 V232.73 H232.73 V224.97 H224.97 Z M232.73,224.97 V232.73 H240.48 V224.97 H232.73 Z M15.52,232.73 V240.48 H23.27 V232.73 H15.52 Z M23.27,232.73 V240.48 H31.03 V232.73 H23.27 Z M31.03,232.73 V240.48 H38.79 V232.73 H31.03 Z M38.79,232.73 V240.48 H46.55 V232.73 H38.79 Z M46.55,232.73 V240.48 H54.30 V232.73 H46.55 Z M54.30,232.73 V240.48 H62.06 V232.73 H54.30 Z M62.06,232.73 V240.48 H69.82 V232.73 H62.06 Z M85.33,232.73 V240.48 H93.09 V232.73 H85.33 Z M93.09,232.73 V240.48 H100.85 V232.73 H93.09 Z M108.61,232.73 V240.48 H116.36 V232.73 H108.61 Z M116.36,232.73 V240.48 H124.12 V232.73 H116.36 Z M124.12,232.73 V240.48 H131.88 V232.73 H124.12 Z M139.64,232.73 V240.48 H147.39 V232.73 H139.64 Z M147.39,232.73 V240.48 H155.15 V232.73 H147.39 Z M155.15,232.73 V240.48 H162.91 V232.73 H155.15 Z M178.42,232.73 V240.48 H186.18 V232.73 H178.42 Z M186.18,232.73 V240.48 H193.94 V232.73 H186.18 Z M193.94,232.73 V240.48 H201.70 V232.73 H193.94 Z M217.21,232.73 V240.48 H224.97 V232.73 H217.21 Z M232.73,232.73 V240.48 H240.48 V232.73 H232.73 Z " /></svg>