<?xml version="1.0" encoding="UTF-8" standalone="no"?>
<svg
   xmlns:dc="http://purl.org/dc/elements/1.1/"
   xmlns:cc="http://creativecommons.org/ns#"
   xmlns:rdf="http://www.w3.org/1999/02/22-rdf-syntax-ns#"
   xmlns:svg="http://www.w3.org/2000/svg"
   xmlns="http://www.w3.org/2000/svg"
   xmlns:xlink="http://www.w3.org/1999/xlink"
   xmlns:sodipodi="http://sodipodi.sourceforge.net/DTD/sodipodi-0.dtd"
   xmlns:inkscape="http://www.inkscape.org/namespaces/inkscape"
   width="256"
   height="256"
   viewBox="0 0 33 33"
   shape-rendering="crispEdges"
   version="1.1"
   id="svg5682"
   sodipodi:docname="qr-grac.svg"
   inkscape:version="0.92.5 (2060ec1f9f, 2020-04-08)">
  <metadata
     id="metadata5688">
    <rdf:RDF>
      <cc:Work
         rdf:about="">
        <dc:format>image/svg+xml</dc:format>
        <dc:type
           rdf:resource="http://purl.org/dc/dcmitype/StillImage" />
        <dc:title></dc:title>
      </cc:Work>
    </rdf:RDF>
  </metadata>
  <defs
     id="defs5686">
    <color-profile
       name="GRACoL2006_Coated1v2.icc"
       xlink:href="/home/alex/.local/share/color/icc/GRACoL2006_Coated1v2.icc"
       id="color-profile6499" />
  </defs>
  <sodipodi:namedview
     pagecolor="#ffffff"
     bordercolor="#666666"
     borderopacity="1"
     objecttolerance="10"
     gridtolerance="10"
     guidetolerance="10"
     inkscape:pageopacity="0"
     inkscape:pageshadow="2"
     inkscape:window-width="1848"
     inkscape:window-height="1016"
     id="namedview5684"
     showgrid="false"
     inkscape:zoom="1.3037281"
     inkscape:cx="-119.83204"
     inkscape:cy="115.91833"
     inkscape:window-x="72"
     inkscape:window-y="27"
     inkscape:window-maximized="1"
     inkscape:current-layer="svg5682" />
  <path
     fill="#ffffff"
     d="M0 0h33v33H0z"
     id="path5678" />
  <path
     id="path5680"
     transform="scale(0.12890625)"
     d="m 15.515625,19.394531 h 54.302734 z m 69.818359,0 h 7.757813 z m 46.544926,0 h 15.51562 z m 23.27343,0 h 23.27149 z m 31.0293,0 h 54.30274 z M 15.515625,27.152344 h 7.757813 z m 46.544922,0 h 7.757812 z m 23.273437,0 h 31.029296 z m 69.818356,0 h 7.75586 z m 31.0293,0 h 7.75781 z m 46.54492,0 h 7.75782 z M 15.515625,34.908203 h 7.757813 z m 15.515625,0 h 23.271484 z m 31.029297,0 h 7.757812 z m 15.515625,0 h 15.515625 z m 46.544918,0 h 7.75782 z m 15.51563,0 h 7.75781 z m 23.27148,0 h 15.51563 z m 23.27344,0 h 7.75781 z m 15.51563,0 h 23.27148 z m 31.02929,0 h 7.75782 z M 15.515625,42.666016 h 7.757813 z m 15.515625,0 h 23.271484 z m 31.029297,0 h 7.757812 z m 15.515625,0 h 7.757812 z m 23.271488,0 h 7.75781 z m 38.78906,0 h 15.51562 z m 23.27148,0 h 7.75782 z m 23.27344,0 h 7.75781 z m 15.51563,0 h 23.27148 z m 31.02929,0 h 7.75782 z M 15.515625,50.423828 h 7.757813 z m 15.515625,0 h 23.271484 z m 31.029297,0 h 7.757812 z m 15.515625,0 h 7.757812 z m 23.271488,0 h 7.75781 z m 15.51562,0 h 23.27344 z m 31.03125,0 h 23.27149 z m 38.78711,0 h 7.75781 z m 15.51563,0 h 23.27148 z m 31.02929,0 h 7.75782 z M 15.515625,58.181641 h 7.757813 z m 46.544922,0 h 7.757812 z m 15.515625,0 h 15.515625 z m 38.787108,0 h 31.03125 z m 38.78906,0 h 7.75586 z m 31.0293,0 h 7.75781 z m 46.54492,0 h 7.75782 z M 15.515625,65.939453 h 54.302734 z m 62.060547,0 h 7.757812 z m 15.515625,0 h 7.755863 z m 15.513673,0 h 7.75781 z m 15.51562,0 h 7.75782 z m 15.51563,0 h 7.75781 z m 15.51562,0 h 7.75586 z m 15.51368,0 h 7.75781 z m 15.51562,0 h 54.30274 z M 77.576172,73.697266 h 7.757812 z m 15.515625,0 h 15.513673 z m 23.271483,0 h 7.75781 z m 15.51563,0 h 7.75781 z m 31.02929,0 h 7.75782 z M 15.515625,81.455078 h 7.757813 z m 15.515625,0 h 38.787109 z m 54.302734,0 h 31.029296 z m 38.787106,0 h 15.51563 z m 23.27344,0 h 15.51367 z m 23.27149,0 h 7.75781 z m 15.51562,0 h 38.78711 z M 15.515625,89.212891 H 31.03125 Z m 31.029297,0 h 15.515625 z m 31.03125,0 h 7.757812 z m 15.515625,0 h 15.513673 z m 38.787113,0 h 77.57617 z m 100.84765,0 h 7.75782 z M 15.515625,96.96875 h 7.757813 z m 15.515625,0 h 15.513672 z m 31.029297,0 h 23.273437 z m 31.03125,0 h 15.513673 z m 54.302733,0 h 7.75781 z m 23.27149,0 h 15.51562 z m -155.150395,7.75781 h 23.271484 z m 85.332035,0 h 7.75781 z m 23.27343,0 h 7.75782 z m 15.51563,0 h 7.75781 z m 31.0293,0 h 7.75781 z m 15.51562,0 h 15.51563 z m 23.27344,0 h 7.75781 z m 15.51367,0 h 7.75781 z m -201.695312,7.75782 h 7.757812 z m 15.513671,0 h 7.757813 z m 15.515625,0 h 15.515625 z m 23.273438,0 h 38.787108 z m 62.060548,0 h 15.51562 z m 69.81836,0 h 15.51367 z m -193.939455,7.75781 h 7.757813 z m 23.271484,0 h 15.515625 z m 31.03125,0 h 23.273438 z m 31.029301,0 h 38.78906 z m 62.06054,0 h 31.03125 z m 38.78907,0 h 7.75781 z m 31.02929,0 h 7.75782 z M 31.03125,128 h 7.755859 z m 15.513672,0 h 7.757812 z m 15.515625,0 h 7.757812 z m 31.03125,0 h 7.755863 z m 15.513673,0 h 38.78906 z m 46.54687,0 h 7.75586 z m 23.27149,0 h 7.75781 z m 15.51562,0 h 31.0293 z m -170.666012,7.75781 h 7.757812 z m 46.544921,0 h 7.757813 z m 23.273438,0 h 7.755863 z m 23.271483,0 h 7.75781 z m 15.51563,0 h 7.75781 z m 31.02929,0 h 15.51563 z m 62.06055,0 h 7.75781 z m -209.453125,7.75781 h 7.757813 z m 23.271484,0 h 15.515625 z m 23.273438,0 h 7.757812 z m 15.515625,0 h 31.029298 z m 46.544918,0 h 15.51563 z m 23.27344,0 h 15.51367 z m 23.27149,0 h 7.75781 z m 38.78906,0 h 15.51367 z m -193.939455,7.75782 h 23.271484 z m 38.787109,0 h 7.757813 z m 23.273438,0 h 15.515625 z m 23.271488,0 h 15.51562 z m 31.03125,0 h 77.57617 z m 85.33398,0 h 7.75586 z m 15.51367,0 h 7.75782 z m -217.210935,7.75781 h 7.757813 z m 15.515625,0 h 38.787109 z m 62.060547,0 h 7.755863 z m 15.513673,0 h 7.75781 z m 38.78906,0 h 7.75781 z m 23.27149,0 h 7.75781 z m 15.51562,0 h 7.75781 z m 15.51563,0 h 7.75781 z m 15.51562,0 h 7.75586 z m -201.697265,7.75586 h 7.757813 z m 31.029297,0 h 15.515625 z m 23.273437,0 h 15.515625 z m 31.029301,0 h 7.75781 z m 23.27343,0 h 7.75782 z m 15.51563,0 h 7.75781 z m 38.78711,0 h 7.75781 z m 23.27344,0 h 7.75781 z m 23.27148,0 h 7.75781 z m -209.453125,7.75781 h 7.757813 z m 15.515625,0 h 7.755859 z m 31.029297,0 h 7.757812 z m 15.515625,0 h 7.757812 z m 15.515625,0 h 15.513673 z m 54.302733,0 h 7.75781 z m 23.27149,0 h 38.78906 z m 46.54687,0 h 23.27149 z m -139.636718,7.75781 h 7.757812 z m 15.515625,0 h 7.755863 z m 23.271483,0 h 23.27344 z m 38.78906,0 h 7.75586 z m 15.51368,0 h 7.75781 z m 31.03125,0 h 38.78711 z m -186.181645,7.75782 h 54.302734 z m 77.576172,0 h 7.755863 z m 15.513673,0 h 38.78906 z m 46.54687,0 h 23.27149 z m 31.0293,0 h 7.75781 z m 15.51563,0 h 23.27148 z m -186.181645,7.75781 h 7.757813 z m 46.544922,0 h 7.757812 z m 15.515625,0 h 7.757812 z m 31.029298,0 h 15.51562 z m 23.27344,0 h 7.75781 z m 31.02929,0 h 15.51563 z m 38.78907,0 h 7.75781 z m 31.02929,0 h 7.75782 z m -217.210935,7.75781 h 7.757813 z m 15.515625,0 h 23.271484 z m 31.029297,0 h 7.757812 z m 15.515625,0 h 15.515625 z m 23.271488,0 h 7.75781 z m 23.27343,0 h 31.03125 z m 46.54493,0 h 38.78906 z m 46.54687,0 h 7.75586 z m 15.51367,0 h 7.75782 z m -217.210935,7.75781 h 7.757813 z m 15.515625,0 h 23.271484 z m 31.029297,0 h 7.757812 z m 15.515625,0 h 7.757812 z m 15.515625,0 h 23.271483 z m 62.060543,0 h 23.27149 z m 38.78711,0 h 7.75782 z m 15.51563,0 h 15.51367 z M 15.515625,221.0918 h 7.757813 z m 15.515625,0 h 23.271484 z m 31.029297,0 h 7.757812 z m 15.515625,0 h 15.515625 z m 38.787108,0 h 7.75781 z m 15.51563,0 h 31.02929 z m 46.54492,0 h 54.30273 z m -162.908205,7.75586 h 7.757813 z m 46.544922,0 h 7.757812 z m 46.544923,0 h 7.75781 z m 15.51562,0 h 23.27344 z m 38.78711,0 h 15.51563 z m 23.27344,0 h 31.03125 z m 38.78711,0 h 7.75781 z m -209.453125,7.75781 h 54.302734 z m 62.060547,0 h 7.757812 z m 23.271488,0 h 31.03125 z m 46.54687,0 h 23.27149 z m 31.0293,0 h 7.75781 z m 23.27344,0 h 7.75781 z m 15.51562,0 h 7.75586 z"
     inkscape:connector-curvature="0"
     style="fill:#000000 icc-color(GRACoL2006_Coated1v2, 0, 0, 0, 1);fill-opacity:1;stroke:none" />
</svg>
